<svg width="408" height="110" viewBox="0 0 408 110" fill="none" xmlns="http://www.w3.org/2000/svg">
<path d="M196.248 23.409L204.024 15.633L211.791 23.409L204.024 31.1849L196.248 23.409ZM204.019 0L172.736 31.2063L180.572 38.9993L188.425 31.2191L196.209 39.0462L188.352 46.8905L196.209 54.6408L203.87 46.8649L211.834 54.6408L219.614 46.8649L211.834 39.0975L219.687 31.2276L227.467 39.0078L235.251 31.2276L204.015 0.00854864L204.019 0Z" fill="white"/>
<path d="M16.9013 75.556V85.9496H12.9727L16.9013 75.556ZM16.9013 101.54H24.6986V70.3763H10.3978L0 101.54H7.79302L11.6874 91.1762H16.9055V101.54H16.9013ZM131.243 101.54V80.7784H113.052L110.439 85.9538V96.3602L113.052 101.544H131.243V101.54ZM123.45 96.3602H118.228V85.9538H123.45V96.3602ZM28.5887 101.54H36.3774V70.3763H28.5887V101.54ZM166.301 85.9496V101.54H158.512V85.9496H154.614V101.54H146.825V80.7784H175.418L177.988 85.9538V101.544H170.2V85.9538H166.297L166.301 85.9496ZM142.935 101.54V80.7784L135.137 80.7357V101.54H142.935ZM135.137 75.556H142.935V70.3721H135.137V75.556ZM38.9907 91.1421H46.7838V85.9154H38.9907V91.1421ZM110.439 80.7784V85.9538H106.545V101.544H98.7515V85.9538H94.8571V101.544H87.0641V85.9538H83.1697V101.544H64.9746L62.3655 96.3602V85.9538H57.1474V101.544H49.3501V70.3806H70.1543V75.5646H57.1474V80.787H70.1543V96.3687H75.3382V80.787H87.0641V75.5646H94.8571V80.787H98.7515V75.5646H106.545V80.787H110.439V80.7784Z" fill="white"/>
<path d="M343.024 75.5811H350.825V80.7821H354.728V85.9831H350.825V101.582H343.024V85.9831H339.125V80.7821H343.024V75.5811Z" fill="white"/>
<path d="M302.783 96.3801V85.9823H307.989V96.3801H302.783ZM297.599 101.581H315.786V80.7812H297.599L294.99 85.9823V96.3801L297.599 101.581Z" fill="white"/>
<path d="M261.178 75.5811H268.971V80.7821H272.878V85.9831H268.971V101.582H261.178V85.9831H257.275V80.7821H261.178V75.5811Z" fill="white"/>
<path d="M284.581 93.7881V85.9951H280.679V101.581H272.877V80.7812H289.787L292.404 85.978V93.7881H284.581Z" fill="white"/>
<path d="M354.729 80.782H362.526V101.582H354.729V80.782ZM354.729 70.3799H362.526V75.5809H354.729V70.3799Z" fill="white"/>
<path d="M331.364 93.7797V85.9824H326.163V96.3802H339.127V101.581H320.94L318.365 96.3802V85.9824L320.94 80.7814H336.522L339.127 85.9824V93.7797H331.364Z" fill="white"/>
<path d="M204.035 93.784V85.9824H198.839V96.3802H211.803V101.581H193.608L191.037 96.3802V85.9824L193.608 80.7814H209.198L211.803 85.9824V93.784H204.035Z" fill="white"/>
<path d="M222.195 96.3801V85.9823H227.392V96.3801H222.195ZM217.002 101.581H232.58L235.189 96.3801V85.9823L232.58 80.7812H217.002L214.385 85.9823V96.3801L217.002 101.581Z" fill="white"/>
<path d="M382.001 80.7812L384.605 85.9823V101.581H376.799V85.9823H372.905V101.581H365.104V80.7812H382.001Z" fill="white"/>
<path d="M254.666 80.7814L257.275 85.9824V101.581H249.469V85.9824H245.575V101.581H237.773V80.7814H254.666Z" fill="white"/>
<path d="M407.996 80.7812V104.182L405.387 109.383H387.191V104.182H400.262V101.585H389.818L387.196 96.3801V85.9823L389.805 80.7812H408M394.993 96.3801H400.262V85.9823H394.993V96.3801Z" fill="white"/>
</svg>
