<svg width="293" height="244" viewBox="0 0 293 244" fill="none" xmlns="http://www.w3.org/2000/svg">
<path d="M288.985 214.292C289.064 213.968 289.113 213.644 289.14 213.324H289.155V212.867C289.155 212.841 289.155 212.818 289.155 212.792V166.76C291.402 165.886 293 163.703 293 161.143V155.806C293 152.473 290.301 149.774 286.968 149.774H218.635C220.215 148.526 221.994 146.819 223.095 144.613C224.84 141.119 224.535 137.3 222.231 133.855C221.968 133.455 221.681 133.067 221.361 132.69C222.917 132.252 224.682 132.03 226.631 132.03C227.909 132.03 229.088 132.128 230.061 132.252C230.517 132.852 230.973 133.508 231.422 134.216C232.975 136.678 236.605 142.434 243.357 142.434C243.952 142.434 244.525 142.389 245.113 142.299C247.639 141.922 251.055 140.459 253.117 137.504C253.211 137.368 253.301 137.232 253.388 137.096C255.593 136.015 257.248 134.186 258.085 131.898C258.093 131.875 258.1 131.853 258.108 131.83C258.341 131.171 258.511 130.507 258.617 129.851C259.325 128.909 259.849 127.834 260.158 126.658C261.022 123.443 260.501 120.382 258.703 117.958C258.699 117.92 258.677 117.765 258.669 117.728C257.987 113.494 255.688 111.334 253.852 110.252C253.478 110.038 253.09 109.845 252.691 109.683C250.957 107.519 248.683 106.649 247.077 106.264C254.217 97.8501 256.66 89.0893 257.229 82.1267C258.485 66.6709 251.481 49.8015 236.409 31.9821C225.093 18.6035 212.751 9.0322 210.395 7.2529L202.433 1.22515C201.347 0.403358 200.069 0 198.795 0C197.167 0 195.549 0.655928 194.366 1.93386L187.595 9.25085C183.664 13.4955 178.028 21.0915 172.547 29.9465C171.276 24.0771 169.595 18.8862 167.51 14.4153L162.425 3.49074C161.705 1.94894 160.371 0.780328 158.746 0.275188C158.162 0.0942425 157.558 0.0037697 156.959 0.0037697C155.892 0.0037697 154.829 0.286497 153.894 0.840643L143.43 7.01918C142.159 7.76935 112.967 25.208 94.4612 54.2422C92.3124 54.4458 89.5191 54.7172 86.6202 54.9999C81.2182 55.5239 73.8145 56.2439 72.8645 56.2929C70.7912 56.3759 65.2875 56.5945 62.6675 61.0051C60.1003 65.3251 62.2679 69.7206 64.1792 73.5959C64.624 74.5006 65.0839 75.4355 65.4948 76.3591C66.4749 78.5907 71.9221 90.3183 82.8166 101.789C85.5571 104.677 88.3995 107.301 91.3361 109.664C89.8847 110.158 88.1771 111.067 86.8087 112.778C86.4015 112.944 86.0057 113.14 85.625 113.362C83.8155 114.429 81.516 116.593 80.8412 120.826C80.8375 120.853 80.8148 120.992 80.8111 121.038C79.0355 123.439 78.504 126.568 79.3522 129.742C79.6613 130.922 80.1853 132 80.894 132.942C81.0033 133.606 81.173 134.273 81.4067 134.933C81.4142 134.952 81.4218 134.97 81.4293 134.989C82.2624 137.27 83.9173 139.094 86.1188 140.18C86.198 140.305 86.2771 140.425 86.3601 140.546C86.3676 140.557 86.3752 140.568 86.3827 140.58C88.4523 143.546 91.8714 145.009 94.3971 145.39C94.9776 145.48 95.5506 145.526 96.15 145.526C102.909 145.526 106.539 139.765 108.092 137.3C108.537 136.591 108.99 135.935 109.446 135.34C110.415 135.215 111.594 135.117 112.88 135.117C115.681 135.117 118.101 135.574 120.091 136.482C120.091 136.482 122.421 137.538 123.19 137.884L123.586 143.335C123.582 143.524 123.582 143.739 123.597 143.969C123.676 145.13 124.042 147.572 125.652 149.77H68.5105C69.2833 148.492 69.977 147.32 70.5952 146.272C71.0438 145.514 71.4547 144.817 71.8279 144.199C72.7326 142.698 75.4883 138.126 73.1209 133.934C72.4838 132.807 70.5349 130.187 66.1771 130.187C63.7155 130.187 61.0201 131.027 58.6452 131.77L57.9516 131.985C55.6182 132.701 52.9605 133.851 50.842 135.061C48.2748 136.527 44.8217 138.944 44.49 142.962C44.3317 144.904 44.9725 146.739 46.2354 148.176C45.3231 149.97 43.05 153.555 37.4557 160.623C35.0544 163.662 32.1895 166.772 29.219 169.742C30.4592 164.438 31.7673 160.122 33.1017 156.948C36.5096 148.843 36.9431 143.848 34.5493 140.244C33.015 137.933 30.4479 136.61 27.5113 136.61C24.0318 136.61 20.6014 138.405 18.0003 139.965L17.6535 140.169C15.6179 141.349 10.2121 144.481 9.1076 153.902L1.54935 218.036C1.39856 219.167 1.06306 223.347 3.72069 226.68C1.53427 227.588 0 229.737 0 232.251V237.589C0 240.922 2.69911 243.621 6.03152 243.621H286.968C290.301 243.621 293 240.922 293 237.589V232.251C293 228.919 290.301 226.22 286.968 226.22H282.795C283.681 225.383 284.496 224.414 285.223 223.328C287.609 219.766 288.85 214.839 288.985 214.289V214.292Z" fill="white"/>
<path d="M251.275 22.3011V27.1037C251.275 30.4361 253.974 33.1352 257.307 33.1352H258.815C259.606 33.1352 260.36 32.9769 261.054 32.7017C261.755 32.9807 262.509 33.1352 263.282 33.1352H264.703C265.397 33.1352 266.064 33.0184 266.686 32.7997C267.255 32.9769 267.854 33.0674 268.469 33.0674H269.607C270.267 33.0674 270.908 32.9618 271.511 32.7583C272.163 32.9995 272.868 33.1315 273.603 33.1315H275.07C276.736 33.1315 278.327 32.4416 279.465 31.2278C280.603 30.0139 281.192 28.3816 281.09 26.723L280.366 15.1764C280.166 11.9985 277.531 9.52184 274.346 9.52184H272.446C271.273 9.52184 270.161 9.86111 269.219 10.4605C268.277 9.86111 267.161 9.52184 265.992 9.52184H264.085C263.791 9.52184 263.5 9.54822 263.214 9.58969C262.927 9.54822 262.637 9.51807 262.339 9.51807H253.797C250.465 9.51807 247.766 12.2172 247.766 15.5496V16.8162C247.766 19.2477 249.202 21.3398 251.271 22.2974L251.275 22.3011Z" fill="white"/>
<path d="M286.972 155.806H48.9121V161.144H286.972V155.806Z" fill="#008343"/>
<path d="M36.3179 179.966C53.4098 164.729 62.3628 148.244 66.6678 141.089C70.9803 133.934 64.127 136.399 59.7278 137.753C55.321 139.106 47.9399 142.929 51.3967 144.651C54.8498 146.374 52.1884 151.735 42.1949 164.363C35.9297 172.283 26.8371 180.512 20.93 185.556C20.5907 185.847 20.1233 185.356 20.2025 184.848C21.9893 173.587 24.417 162.075 27.5534 154.611C35.3416 136.098 22.4756 144.338 20.8999 145.262C19.3241 146.189 15.8899 147.889 15.1021 154.611L7.5325 218.813C7.5325 218.813 6.72955 224.022 11.3173 224.248C15.8975 224.471 16.0482 221.723 16.199 219.159C16.2782 217.863 17.1905 206.154 19.0678 192.493C19.1243 192.093 19.5918 191.927 19.784 192.255C26.7467 204.262 40.9358 222.993 46.8693 224.248C54.6651 225.907 57.2172 222.522 60.4591 218.839C63.6671 215.186 65.3936 207.677 65.3936 207.677C65.3936 207.677 63.0715 211.122 56.5989 213.309C46.5225 216.72 37.9087 203.459 33.1476 193.231C29.8831 186.212 29.212 186.314 36.3255 179.97" fill="#E90020"/>
<path d="M102.714 200.925L91.4162 209.395C91.4162 209.395 81.7093 216.396 84.7703 209.52C87.8275 202.644 106.883 186.856 106.883 186.856L102.714 200.925ZM110.178 207.028C114.328 186.54 120.337 169.885 103.822 179.716C87.3073 189.552 58.7103 218.574 77.3251 224.365C84.1709 226.491 101.47 208.193 101.47 208.193C101.47 208.193 100.147 225.145 112.334 223.354C118.909 222.382 121.483 211.239 121.483 211.239C121.483 211.239 106.774 223.818 110.178 207.024" fill="#E90020"/>
<path d="M139.656 188.994C142.68 171.555 133.274 181.172 132.102 182.284C130.933 183.384 128.325 185.533 128.973 191.455L129.61 205.825C130.27 215.231 131.706 234.23 140.961 223.705C142.046 222.465 148.576 210.285 150.705 206.055C151.169 205.128 151.422 205.305 151.41 206.489C151.361 210.221 150.958 218.691 152.673 222.265C154.931 226.989 157.86 224.327 161.038 222.141C164.216 219.958 171.118 206.783 173.463 202.086C179.329 190.313 186.137 170.952 180.554 171.762C174.971 172.573 176.268 176.787 174.937 182.133C173.603 187.475 165.015 204.574 162.177 208.811C159.338 213.06 157.005 210.654 158.237 201.558C159.406 192.854 164.567 180.248 159.647 179.471C154.426 178.642 148.753 200.145 141.571 209.927C137.195 215.891 138.872 191.663 140.116 185.782" fill="#E90020"/>
<path d="M250.649 199.263C252.568 189.567 254.091 185.711 255.203 181.368C257.208 173.497 251.52 177.711 247.803 180.199C244.082 182.687 238.273 188.312 241.975 188.956C245.677 189.59 244.915 193.88 239.566 208.593C236.086 218.164 234.707 223.072 237.089 223.558C239.472 224.045 240.143 224.12 240.143 224.12C243.656 224.456 244.139 224.554 246.054 220.038C247.969 215.514 254.871 206.693 262.595 199.357C270.315 192.021 269.795 197.125 269.641 199.983C269.497 202.769 267.175 217.504 269.871 221.911C271.627 224.784 276.829 225.044 280.215 219.977C282.073 217.199 283.129 212.864 283.129 212.864C275.849 219.887 274.929 215.435 276.305 205.294C277.591 195.836 281.428 184.957 274.79 184.625C260.378 183.897 252.771 195.41 250.649 199.263Z" fill="#E90020"/>
<path d="M286.974 232.255H6.0332V237.593H286.974V232.255Z" fill="#008343"/>
<path d="M212.661 200.925L201.36 209.395C201.36 209.395 191.653 216.396 194.71 209.52C197.775 202.644 216.831 186.856 216.831 186.856L212.661 200.925ZM220.121 207.028C224.272 186.54 230.281 169.885 213.762 179.716C197.251 189.552 168.654 218.574 187.269 224.365C194.111 226.491 211.413 208.193 211.413 208.193C211.413 208.193 210.094 225.145 222.278 223.354C228.852 222.382 231.423 211.239 231.423 211.239C231.423 211.239 216.717 223.818 220.121 207.024" fill="#E90020"/>
<path d="M184.741 127.28C184.741 127.28 181.277 125.671 180.161 121.091C179.366 117.898 175.898 116.099 173.783 116.386C173.014 116.484 171.875 116.571 171.28 117.392C170.025 119.157 172.89 119.394 174.028 120.012C175.155 120.646 175.849 121.558 173.96 120.913C172.083 120.273 172.071 120.242 171.14 119.971C170.224 119.703 167.51 118.29 166.964 121.78C166.654 123.801 169.632 124.276 171.932 124.359L168.332 124.438C168.332 124.438 164.366 124.023 165.32 127.548C165.659 128.826 167.216 129.101 168.943 128.965C167.785 129.256 166.436 130.032 167.193 132.14C167.706 133.576 169.742 133.542 171.766 133.105C171.766 133.105 169.851 133.983 171.238 135.977C171.883 136.897 173.248 137.466 174.111 137.587C176.478 137.945 178.175 136.12 180.142 132.995C182.619 129.082 184.753 127.277 184.753 127.277" fill="white"/>
<path d="M206.357 114.591C189.209 114.591 173.731 102.86 167.899 91.8183C155.919 69.1887 190.691 22.7913 196.07 16.9784L199.451 13.3218L203.432 16.3375C205.268 17.7135 248.276 50.6041 245.77 81.2103C244.816 93.1867 237.337 102.962 223.566 110.282C218.19 113.151 212.4 114.595 206.357 114.595" fill="#6DB574"/>
<path d="M198.875 62.4787C195.116 62.4787 192.074 65.3324 191.98 68.8872C191.98 68.9136 191.965 68.9438 191.965 68.9739C191.965 68.9739 191.972 68.9852 191.972 68.989C191.972 69.0116 191.965 69.0305 191.965 69.0455H191.984C192.04 69.3961 192.357 69.4866 192.76 69.4866C193.164 69.4866 193.476 69.3961 193.522 69.0455H193.548C193.548 66.648 195.599 64.6953 198.125 64.6953C200.65 64.6953 202.705 66.648 202.705 69.0455C202.705 69.89 203.395 70.0634 204.247 70.0634C205.098 70.0634 205.8 69.89 205.8 69.0455C205.8 65.4116 202.705 62.4712 198.878 62.4712" fill="#008343"/>
<path d="M222.261 62.75C218.502 62.75 215.449 65.6112 215.359 69.1698C215.347 69.1962 215.336 69.2226 215.336 69.2527V69.3319H215.359C215.408 69.6825 215.724 69.7692 216.12 69.7692C216.516 69.7692 216.844 69.6825 216.893 69.3319H216.908C216.908 66.9231 218.962 64.9779 221.492 64.9779C224.021 64.9779 226.065 66.9231 226.065 69.3319C226.065 70.1763 226.769 70.346 227.618 70.346C228.466 70.346 229.163 70.1763 229.163 69.3319C229.163 65.7092 226.065 62.75 222.257 62.75" fill="#008343"/>
<path d="M194.756 86.9819C194.552 87.7848 194.733 88.6519 195.249 89.3417C196.983 91.6601 203.252 99.2183 210.999 98.9017C218.908 98.5699 224.502 90.3558 226.029 87.8451C226.029 87.8451 226.719 86.4881 226.421 85.5192C226.123 84.5542 224.781 83.5778 223.198 83.6382C221.618 83.706 199.422 84.6145 197.553 84.6937C195.683 84.7766 194.948 86.1375 194.756 86.9781M197.673 87.3739L223.315 86.3184C223.315 86.3184 223.673 86.375 223.59 86.522C222.9 87.6567 219.458 93.0209 214.678 95.2488C213.499 95.8105 212.228 96.1686 210.894 96.229C204.47 96.4928 198.849 89.534 197.549 87.7848C197.36 87.536 197.677 87.3777 197.677 87.3777" fill="#008343"/>
<path d="M106.206 127.521C106.206 127.521 102.738 125.911 101.618 121.328C100.826 118.135 97.3583 116.336 95.2472 116.627C94.4782 116.725 93.3322 116.811 92.7404 117.633C91.4888 119.394 94.3425 119.624 95.4847 120.253C96.6156 120.883 97.3093 121.791 95.4206 121.15C93.5396 120.513 93.532 120.483 92.6009 120.212C91.6811 119.94 88.9707 118.53 88.4278 122.021C88.115 124.042 91.0893 124.517 93.3925 124.6L89.7887 124.679C89.7887 124.679 85.8192 124.268 86.7729 127.785C87.1122 129.07 88.6691 129.342 90.4032 129.206C89.2383 129.496 87.8925 130.273 88.654 132.384C89.1667 133.82 91.2023 133.786 93.2191 133.353C93.2191 133.353 91.3079 134.231 92.6914 136.222C93.3322 137.138 94.7044 137.711 95.5639 137.835C97.9313 138.186 99.6276 136.365 101.592 133.244C104.072 129.327 106.21 127.529 106.21 127.529" fill="white"/>
<path d="M237.921 130.157C239.885 133.282 241.578 135.102 243.952 134.748C244.808 134.627 246.184 134.054 246.825 133.138C248.212 131.148 246.301 130.27 246.301 130.27C248.314 130.707 250.35 130.741 250.862 129.297C251.624 127.19 250.274 126.417 249.113 126.13C250.847 126.262 252.404 125.987 252.747 124.706C253.701 121.188 249.731 121.603 249.731 121.603L246.128 121.52C248.431 121.441 251.409 120.962 251.092 118.938C250.549 115.455 247.839 116.865 246.923 117.128C245.992 117.4 245.984 117.434 244.103 118.071C242.211 118.715 242.904 117.803 244.035 117.174C245.178 116.548 248.035 116.31 246.783 114.554C246.184 113.736 245.042 113.645 244.273 113.543C242.162 113.257 238.686 115.055 237.895 118.248C236.775 122.828 233.311 124.438 233.311 124.438C233.311 124.438 235.452 126.244 237.925 130.153" fill="white"/>
<path d="M253.701 121.354C253.351 120.951 252.94 120.668 252.502 120.457C252.729 119.921 252.808 119.311 252.721 118.693C252.472 117.151 251.839 116.069 250.821 115.469C250.21 115.115 249.453 114.961 248.706 115.01C248.65 114.595 248.48 114.127 248.111 113.622C247.168 112.299 245.562 112.08 244.699 111.964C244.409 111.93 244.284 111.911 244.156 111.911C241.25 111.715 237.243 114.033 236.312 117.863C235.452 121.343 233.092 122.704 232.715 122.907C229.813 122.613 224.708 122.198 221.139 122.579C218.515 122.858 214.952 124 212.042 125.075C211.824 123.356 211.699 121.539 211.692 119.624C216.728 118.987 221.576 117.456 226.167 115.017C245.464 104.756 250.44 91.2001 251.225 81.6439C253.901 48.7269 211.597 15.7232 206.761 12.0703L198.799 6.03882L192.029 13.3558C186.491 19.3383 176.867 33.143 169.901 46.9514C159.576 67.4435 157.261 83.378 163.04 94.3064C168.51 104.632 181.432 115.458 196.688 118.862C196.673 120.969 196.76 123.186 196.982 125.433C196.963 125.429 196.941 125.425 196.926 125.421C193.348 125.045 188.244 125.455 185.341 125.749C184.964 125.55 182.608 124.189 181.749 120.713C180.81 116.883 176.811 114.565 173.897 114.757C173.768 114.757 173.644 114.776 173.358 114.81C172.491 114.927 170.888 115.145 169.946 116.465C169.584 116.977 169.403 117.445 169.358 117.856C168.608 117.81 167.85 117.965 167.239 118.319C166.214 118.923 165.584 120.001 165.343 121.546C165.253 122.157 165.328 122.771 165.554 123.303C165.125 123.514 164.714 123.797 164.359 124.2C163.779 124.864 163.206 126.047 163.73 127.962C163.967 128.89 164.578 129.61 165.46 130.062C165.264 130.733 165.253 131.596 165.637 132.678C165.973 133.579 166.629 134.246 167.545 134.635C167.997 134.819 168.521 134.936 169.117 134.97C169.173 135.524 169.388 136.18 169.882 136.889C170.934 138.401 172.943 139.053 173.859 139.185C174.153 139.237 174.421 139.253 174.696 139.253C177.862 139.253 179.887 136.463 181.538 133.843C182.872 131.728 184.041 130.356 184.829 129.508C187.174 129.029 192.361 128.279 197.544 129.527C198.599 135.438 200.756 141.303 204.752 145.932C204.752 145.936 204.755 145.951 204.755 145.951C207.127 149.472 210.414 148.247 213.848 145.827C217.286 143.395 219.582 140.711 217.21 137.19C216.886 136.689 216.487 136.256 216.068 135.867C214.738 134.363 213.716 132.241 212.985 129.7C214.146 129.172 215.458 128.577 216.935 127.906C223.129 125.078 230.34 126.081 233.232 126.665C234.027 127.514 235.192 128.89 236.526 131.004C238.178 133.621 240.206 136.41 243.361 136.41C243.64 136.41 243.908 136.391 244.205 136.342C245.118 136.21 247.131 135.554 248.179 134.047C248.676 133.338 248.887 132.674 248.94 132.124C249.539 132.086 250.063 131.969 250.516 131.781C251.432 131.396 252.092 130.729 252.419 129.828C252.8 128.746 252.789 127.879 252.597 127.212C253.479 126.76 254.089 126.04 254.331 125.112C254.847 123.201 254.274 122.017 253.697 121.35M179.747 132.757C177.893 135.701 176.298 137.466 174.172 137.149C173.437 137.04 172.17 136.523 171.605 135.717C171.254 135.193 171.115 134.729 171.224 134.337C171.36 133.832 171.827 133.575 171.91 133.526C174.206 133.021 176.422 132.03 176.566 131.958C176.803 131.853 176.894 131.581 176.788 131.363C176.682 131.14 176.407 131.05 176.189 131.144C174.643 131.849 170.232 133.5 168.348 132.723C167.986 132.569 167.737 132.328 167.62 131.985C167.337 131.219 167.356 130.609 167.673 130.175C167.978 129.779 168.502 129.546 169.011 129.402C169.46 129.372 169.912 129.316 170.353 129.244H170.406L170.455 129.229C172.581 128.867 174.537 128.162 174.666 128.117C174.722 128.098 174.752 128.053 174.786 128.007C174.835 127.97 174.888 127.955 174.914 127.906C174.948 127.849 174.926 127.785 174.937 127.725C174.948 127.672 174.979 127.634 174.952 127.582C174.952 127.57 174.952 127.57 174.948 127.563C174.948 127.551 174.948 127.551 174.948 127.54C174.926 127.51 174.899 127.499 174.884 127.472C174.843 127.416 174.798 127.355 174.741 127.321C174.696 127.299 174.658 127.299 174.613 127.287C174.575 127.276 174.537 127.25 174.485 127.254C174.458 127.254 174.428 127.269 174.398 127.269L170.308 128.335C170.285 128.347 169.588 128.528 168.951 128.513C167.944 128.588 167.028 128.539 166.425 128.23C166.059 128.049 165.848 127.785 165.758 127.438C165.524 126.59 165.584 125.949 165.95 125.535C166.648 124.728 168.265 124.886 168.276 124.886L171.771 124.799C173.109 124.852 174.247 124.758 174.488 124.739C174.59 124.728 174.662 124.683 174.726 124.619C174.745 124.611 174.771 124.611 174.786 124.588C174.839 124.539 174.839 124.483 174.858 124.415C174.873 124.377 174.914 124.34 174.914 124.291V124.268C174.914 124.268 174.914 124.268 174.914 124.253C174.914 124.211 174.873 124.185 174.854 124.155C174.832 124.079 174.801 124.012 174.745 123.955C174.722 123.94 174.685 123.944 174.647 123.925C174.583 123.883 174.522 123.846 174.443 123.846L171.872 123.902C170.244 123.846 168.431 123.582 167.699 122.82C167.439 122.549 167.349 122.232 167.417 121.848C167.548 120.947 167.85 120.351 168.306 120.087C168.992 119.692 169.969 120.038 170.621 120.268C170.772 120.325 170.896 120.366 171.013 120.4C171.59 120.57 171.801 120.645 172.366 120.841C172.683 120.954 173.12 121.109 173.799 121.346C174.304 121.512 175.261 121.84 175.533 121.241C175.815 120.623 175.095 120.012 174.243 119.631C173.384 119.258 171.548 119.284 171.439 118.289C171.42 118.093 171.529 117.841 171.657 117.648C172.087 117.056 172.966 116.936 173.667 116.853L173.844 116.834C175.668 116.604 178.978 118.195 179.713 121.203C180.607 124.86 182.906 126.696 183.988 127.378C183.219 128.124 181.579 129.873 179.747 132.769M172.743 89.3304C163.304 71.4846 191.58 29.8068 200.107 20.6012C200.107 20.6012 274.672 76.9884 220.969 105.544C216.125 108.119 211.171 109.212 206.361 109.212C191.335 109.212 177.647 98.5925 172.743 89.3341M252.303 124.6C252.208 124.946 251.99 125.214 251.628 125.391C251.028 125.7 250.112 125.749 249.106 125.674C248.465 125.689 247.768 125.504 247.749 125.497L243.659 124.426C243.636 124.419 243.602 124.411 243.576 124.411C243.523 124.407 243.485 124.438 243.448 124.449C243.406 124.456 243.365 124.456 243.319 124.475C243.267 124.513 243.214 124.57 243.176 124.63C243.157 124.66 243.131 124.671 243.116 124.701C243.105 124.713 243.116 124.713 243.116 124.72C243.116 124.72 243.112 124.727 243.105 124.739C243.078 124.792 243.116 124.837 243.12 124.886C243.127 124.946 243.112 125.003 243.142 125.071C243.169 125.116 243.218 125.127 243.27 125.169C243.301 125.214 243.327 125.256 243.387 125.278C243.519 125.327 245.472 126.032 247.602 126.394L247.655 126.405H247.707C248.145 126.481 248.601 126.53 249.049 126.564C249.566 126.707 250.086 126.941 250.384 127.336C250.697 127.77 250.719 128.377 250.437 129.142C250.324 129.485 250.067 129.73 249.709 129.885C247.824 130.661 243.414 129.006 241.872 128.305C241.649 128.207 241.374 128.302 241.265 128.52C241.167 128.743 241.257 129.01 241.491 129.123C241.634 129.191 243.847 130.179 246.143 130.692C246.222 130.737 246.705 130.997 246.829 131.498C246.942 131.894 246.803 132.354 246.448 132.878C245.894 133.681 244.616 134.205 243.889 134.31C241.763 134.623 240.164 132.863 238.306 129.923C236.477 127.024 234.838 125.278 234.069 124.532C235.15 123.846 237.45 122.01 238.34 118.357C239.079 115.353 242.385 113.758 244.213 113.992L244.386 114.014C245.091 114.094 245.97 114.214 246.396 114.81C246.531 115.002 246.637 115.255 246.618 115.447C246.505 116.442 244.669 116.412 243.813 116.789C242.95 117.166 242.234 117.777 242.52 118.399C242.792 119.002 243.749 118.674 244.258 118.504C244.929 118.267 245.374 118.112 245.691 118.003C246.245 117.807 246.467 117.728 247.044 117.558C247.161 117.528 247.285 117.486 247.436 117.43C248.084 117.196 249.064 116.849 249.747 117.249C250.21 117.516 250.508 118.108 250.636 119.013C250.708 119.397 250.614 119.71 250.346 119.982C249.619 120.743 247.813 121.015 246.184 121.067L243.61 121.011C243.531 121.011 243.47 121.049 243.406 121.09C243.372 121.109 243.338 121.101 243.312 121.116C243.259 121.169 243.233 121.241 243.206 121.312C243.187 121.35 243.142 121.377 243.142 121.418C243.142 121.418 243.15 121.418 243.142 121.429V121.448C243.142 121.501 243.184 121.531 243.199 121.576C243.214 121.644 243.214 121.701 243.27 121.746C243.289 121.769 243.316 121.769 243.327 121.776C243.399 121.836 243.466 121.893 243.572 121.901C243.817 121.916 244.952 122.01 246.286 121.961L249.777 122.051C249.777 122.051 251.413 121.893 252.103 122.7C252.469 123.114 252.533 123.755 252.303 124.603" fill="#008343"/>
<path d="M178.733 126.82C178.861 125.647 178.612 124.758 177.949 124.192C177.3 123.65 176.445 123.552 175.762 123.567C176.414 122.982 176.788 122.277 176.663 121.486C176.509 120.475 176.083 119.763 175.419 119.382C174.213 118.689 172.633 119.269 171.876 119.548L171.77 119.59C171.178 119.808 172.192 119.375 172.407 118.564C172.517 118.127 172.37 117.652 171.974 117.162C171.261 116.299 170.059 116.212 169.267 116.167L169.09 116.152C166.843 115.956 163.187 118.044 162.557 121.629C161.788 125.991 158.633 127.759 158.603 127.777L157.984 128.117L158.557 128.531C158.557 128.531 160.789 130.201 163.432 133.847C165.659 136.934 167.039 137.79 169.817 137.842H169.87C170.865 137.842 172.596 137.341 173.282 136.225C173.742 135.437 173.87 134.71 173.64 134.073C173.602 133.933 173.523 133.847 173.467 133.741C173.602 133.741 173.761 133.764 173.896 133.764C175.691 133.764 176.769 133.183 177.097 132.026C177.417 130.944 177.297 130.062 176.754 129.41C176.607 129.24 176.418 129.089 176.233 128.961C177.756 128.629 178.612 127.913 178.733 126.816" fill="white"/>
<path d="M257.309 16.8235H253.803V15.5569H262.345V16.8235H258.82V27.1072H257.309V16.8235Z" fill="#008343"/>
<path d="M273.326 22.0332C273.243 20.4236 273.137 18.4671 273.137 17.0497H273.1C272.693 18.3842 272.229 19.8393 271.648 21.4338L269.613 27.0394H268.474L266.593 21.5356C266.05 19.892 265.594 18.4181 265.27 17.0497H265.236C265.206 18.4859 265.127 20.4009 265.017 22.1539L264.708 27.1035H263.287L264.094 15.5569H266.001L267.969 21.1398C268.452 22.561 268.825 23.8276 269.134 25.0301H269.172C269.473 23.8691 269.892 22.5987 270.401 21.1398L272.455 15.5569H274.355L275.079 27.1035H273.612L273.333 22.0332H273.326Z" fill="#008343"/>
<path d="M154.343 13.5103C154.343 13.5103 119.538 34.0476 102.246 67.1267C102.246 67.1267 86.3304 68.4725 83.4654 68.808C79.1755 69.3207 80.3026 70.5157 81.3393 73.3618C85.0751 83.6455 97.8054 109.193 135.393 109.325C175.616 109.464 182.703 73.6445 183.902 63.553C184.101 61.9094 184.064 60.9557 181.169 61.2724C178.266 61.5777 161.106 63.4324 161.106 63.4324C161.106 63.4324 162.98 32.0346 154.34 13.5103" fill="#DACD26"/>
<path d="M134.838 104.059C128.146 104.059 122.699 99.3958 122.699 93.6734C122.699 92.6782 123.51 91.8828 124.524 91.8828C125.538 91.8828 126.337 92.6782 126.337 93.6734C126.337 97.4243 130.156 100.478 134.838 100.478C139.52 100.478 143.335 97.4243 143.335 93.6734C143.335 92.6782 144.153 91.8828 145.159 91.8828C146.166 91.8828 146.984 92.6782 146.984 93.6734C146.984 99.3958 141.533 104.059 134.838 104.059Z" fill="#008343"/>
<path d="M121.374 78.9143C120.236 78.9143 119.312 78.0096 119.312 76.8862C119.312 75.7628 120.232 74.8543 121.374 74.8543C122.517 74.8543 123.444 75.7591 123.444 76.8862C123.444 78.0134 122.524 78.9143 121.374 78.9143ZM121.634 72.1477C118.528 72.1477 116.018 74.6319 116.018 77.6779C116.018 80.7238 118.528 83.2005 121.634 83.2005C124.741 83.2005 127.244 80.7351 127.244 77.6779C127.244 74.6206 124.729 72.1477 121.634 72.1477Z" fill="#008343"/>
<path d="M147.915 79.7897C146.788 79.7897 145.85 78.885 145.85 77.7541C145.85 76.6231 146.788 75.7184 147.915 75.7184C149.043 75.7184 149.989 76.6345 149.989 77.7541C149.989 78.8737 149.065 79.7897 147.915 79.7897ZM148.183 73.0269C145.077 73.0269 142.562 75.4998 142.562 78.5608C142.562 81.6218 145.077 84.0909 148.183 84.0909C151.289 84.0909 153.789 81.6105 153.789 78.5608C153.789 75.5111 151.278 73.0269 148.183 73.0269Z" fill="#008343"/>
<path d="M179.362 97.1757C185.933 87.416 189.401 74.8591 191.245 68.1679C194.796 55.3132 196.809 51.5209 187.298 52.9307C186.645 53.0325 176.038 54.0918 175.306 54.1672L169.305 54.8118C168.988 44.0192 167.469 28.5898 162.044 16.9602L156.963 6.03564L146.494 12.2142C145.171 12.9945 115.579 30.6895 98.0047 59.9725C93.5791 60.3533 74.7607 62.2457 73.1058 62.3173C64.0435 62.6792 68.1035 67.3423 71.0174 73.9317C74.2292 81.2449 91.9845 114.829 127.868 118.9L128.566 128.562C125.505 127.39 121.335 125.969 118.372 125.656C114.806 125.275 109.698 125.69 106.799 125.98C106.415 125.78 104.059 124.419 103.203 120.94C102.264 117.114 98.2648 114.795 95.3509 114.988C95.2189 114.988 95.1021 115.006 94.8118 115.04C93.941 115.153 92.3426 115.376 91.4002 116.695C91.0308 117.208 90.8574 117.672 90.8084 118.086C90.0582 118.037 89.3005 118.196 88.6898 118.55C87.6757 119.149 87.0424 120.231 86.7974 121.769C86.7069 122.387 86.7861 123.002 87.0123 123.533C86.5825 123.741 86.1641 124.027 85.8097 124.427C85.2368 125.094 84.6638 126.274 85.184 128.189C85.4215 129.12 86.0359 129.84 86.9105 130.289C86.7258 130.964 86.7107 131.831 87.0914 132.912C87.4194 133.81 88.0791 134.473 88.9951 134.861C89.4513 135.046 89.9715 135.163 90.5709 135.201C90.6274 135.755 90.8423 136.415 91.3286 137.123C92.3803 138.631 94.3896 139.283 95.3094 139.419C95.5997 139.464 95.8748 139.483 96.1463 139.483C99.309 139.483 101.333 136.697 102.985 134.077C104.315 131.963 105.484 130.59 106.279 129.742C109.163 129.154 116.378 128.151 122.576 130.982C125.196 132.17 127.292 133.12 128.943 133.862L129.625 143.264C129.633 143.366 129.606 143.46 129.614 143.562C129.893 147.686 133.342 148.327 137.538 148.055C141.729 147.78 145.069 146.698 144.798 142.563C144.798 142.555 144.783 142.552 144.783 142.533H144.817L144.108 132.724C149.823 130.153 156.085 130.036 158.818 130.255C159.662 131.035 160.996 132.377 162.542 134.515C164.996 137.9 166.711 138.948 169.897 139.008H169.949C171.19 139.008 173.395 138.431 174.368 136.822C174.816 136.083 174.997 135.423 175.008 134.861C177.202 134.579 178.028 133.376 178.322 132.336C178.688 131.114 178.544 130.179 178.25 129.49C179.498 128.792 179.898 127.786 179.988 126.945C180.222 124.985 179.476 123.884 178.801 123.315C178.503 123.07 178.175 122.859 177.806 122.712C177.949 122.256 177.99 121.784 177.911 121.309C177.643 119.594 176.773 118.761 176.087 118.369C175.404 117.977 174.53 117.826 173.674 117.909C173.602 117.472 173.41 116.963 172.969 116.424C171.929 115.168 170.3 115.052 169.267 114.98C166.255 114.724 162.176 117.393 161.46 121.411C160.932 124.427 159.202 125.954 158.471 126.489C155.606 126.323 150.283 126.131 146.63 126.696C145.744 126.832 144.757 127.077 143.724 127.382L143.105 118.81C162.237 116.499 173.346 106.11 179.351 97.1644M101.213 132.999C99.3543 135.943 97.7597 137.708 95.6298 137.391C94.9023 137.285 93.6281 136.765 93.0702 135.962C92.7121 135.438 92.5764 134.975 92.6857 134.582C92.8214 134.077 93.2964 133.825 93.3755 133.776C95.6751 133.263 97.8879 132.279 98.0349 132.208C98.2648 132.102 98.3591 131.831 98.2573 131.612C98.1517 131.39 97.8766 131.295 97.6466 131.39C96.1086 132.094 91.698 133.749 89.8132 132.973C89.4588 132.818 89.2062 132.577 89.0856 132.23C88.7991 131.461 88.818 130.858 89.1384 130.424C89.44 130.025 89.9602 129.795 90.4729 129.652C90.9252 129.622 91.3814 129.565 91.8149 129.493H91.8714L91.9242 129.482C94.0503 129.116 96.003 128.415 96.135 128.362C96.1953 128.344 96.2217 128.298 96.2594 128.257C96.3046 128.215 96.3574 128.2 96.3838 128.155C96.4139 128.095 96.3988 128.034 96.4064 127.97C96.4139 127.921 96.4516 127.88 96.429 127.827C96.429 127.816 96.4177 127.816 96.4139 127.805C96.4139 127.797 96.4139 127.797 96.4139 127.786C96.3988 127.756 96.3687 127.744 96.3536 127.714C96.3159 127.654 96.2669 127.597 96.2141 127.563C96.1689 127.544 96.1274 127.544 96.0822 127.533C96.0407 127.522 96.0068 127.492 95.9578 127.499C95.9201 127.499 95.8937 127.507 95.8711 127.514L91.7772 128.585C91.7772 128.585 91.0609 128.777 90.4201 128.762C89.4211 128.837 88.5013 128.788 87.8982 128.476C87.5287 128.298 87.3214 128.034 87.2272 127.688C86.9934 126.836 87.0575 126.199 87.4194 125.784C88.1206 124.981 89.7378 125.136 89.7491 125.136L93.2398 125.049C94.5743 125.098 95.7165 125.007 95.9615 124.989C96.0596 124.981 96.1274 124.924 96.199 124.868C96.2179 124.857 96.2405 124.857 96.2594 124.838C96.3084 124.793 96.3084 124.728 96.3234 124.668C96.3423 124.627 96.3838 124.593 96.3838 124.54V124.517C96.3838 124.517 96.3838 124.506 96.3838 124.502C96.3838 124.461 96.3423 124.434 96.3234 124.397C96.2971 124.329 96.2707 124.257 96.2141 124.204C96.1915 124.186 96.1538 124.193 96.1161 124.178C96.052 124.137 95.9879 124.095 95.9163 124.095L93.3416 124.152C91.7093 124.103 89.8999 123.831 89.1723 123.066C88.9047 122.795 88.8142 122.478 88.8858 122.101C89.0178 121.2 89.3118 120.601 89.7792 120.337C90.4616 119.945 91.4417 120.292 92.0863 120.525C92.2409 120.582 92.3653 120.616 92.4783 120.653C93.0589 120.823 93.2738 120.898 93.8317 121.094C94.1521 121.2 94.5856 121.355 95.2604 121.588C95.7693 121.765 96.7268 122.09 97.002 121.49C97.2847 120.868 96.5647 120.254 95.7127 119.877C94.8533 119.504 93.0174 119.53 92.9081 118.535C92.8817 118.339 92.991 118.082 93.123 117.894C93.5489 117.298 94.4273 117.182 95.136 117.099L95.3132 117.08C97.1377 116.85 100.444 118.444 101.179 121.449C102.076 125.102 104.376 126.934 105.45 127.62C104.685 128.366 103.041 130.115 101.217 133.01M163.533 121.781C164.076 118.735 167.277 116.963 169.109 117.046L169.282 117.061C169.991 117.102 170.877 117.166 171.348 117.728C171.503 117.909 171.657 118.162 171.604 118.346C171.514 118.723 170.658 119.074 170.04 119.334C169.606 119.507 169.211 119.673 168.898 119.862C168.325 120.239 167.397 120.963 167.718 121.554C168.031 122.139 168.954 121.743 169.448 121.547C170.119 121.275 170.541 121.098 170.858 120.963C171.408 120.729 171.608 120.638 172.177 120.435L172.294 120.393C172.92 120.156 174.224 119.677 175.046 120.156C175.472 120.397 175.736 120.887 175.853 121.622C176.007 122.568 174.745 123.462 173.376 123.884L173.022 123.926C172.781 123.959 172.607 124.178 172.637 124.423C172.652 124.566 172.743 124.668 172.852 124.728C172.95 124.83 173.093 124.887 173.244 124.849C173.338 124.83 173.44 124.789 173.546 124.762L174.982 124.574C175.046 124.555 176.626 124.178 177.444 124.868C177.858 125.226 178.024 125.852 177.915 126.711C177.76 128.087 175.491 128.325 173.599 128.28C173.561 128.28 173.55 128.306 173.519 128.313C173.429 128.313 173.365 128.325 173.354 128.325C173.101 128.347 172.916 128.562 172.943 128.815C172.958 129.056 173.176 129.26 173.425 129.222C173.968 129.184 175.502 129.226 176.136 129.987C176.479 130.394 176.543 130.997 176.313 131.778C175.936 133.124 173.632 132.98 171.763 132.626C171.514 132.573 171.276 132.735 171.231 132.98C171.167 133.225 171.34 133.455 171.586 133.508C171.778 133.538 171.925 133.561 172.094 133.583C172.125 133.599 172.698 133.844 172.879 134.368C173.01 134.748 172.901 135.22 172.577 135.774C172.136 136.509 170.771 136.954 169.965 136.954H169.927C167.477 136.905 166.315 136.158 164.261 133.323C162.248 130.545 160.503 128.909 159.681 128.204C160.714 127.461 162.889 125.486 163.541 121.777M85.7532 75.8694C84.8032 73.2796 83.7816 72.1864 87.6833 71.7265C90.2844 71.4286 104.745 70.196 104.745 70.196C120.48 40.1251 152.119 21.4462 152.119 21.4462C159.956 38.2892 158.267 66.8334 158.267 66.8334C158.267 66.8334 173.862 65.1521 176.497 64.8656C176.829 64.8317 177.123 64.8166 177.372 64.8166C179.132 64.8166 179.14 65.6422 178.97 66.954C177.892 76.1031 171.484 108.56 135.091 108.56H134.876C100.719 108.436 89.1384 85.2182 85.7457 75.8656" fill="#008343"/>
</svg>
