<svg width="77" height="49" viewBox="0 0 77 49" fill="none" xmlns="http://www.w3.org/2000/svg">
<path d="M15.4287 17.1333L0 48.0099H30.8573L15.4287 17.1333Z" fill="#0013D2"/>
<path d="M61.5707 48.4273C70.0917 48.4273 76.9994 41.5159 76.9994 32.9902C76.9994 24.4645 70.0917 17.5531 61.5707 17.5531C53.0497 17.5531 46.1421 24.4645 46.1421 32.9902C46.1421 41.5159 53.0497 48.4273 61.5707 48.4273Z" fill="#0013D2"/>
<path d="M43.11 24.2844C43.11 37.6958 35.7481 48.5688 35.7481 48.5688C35.7481 48.5688 28.3863 37.6958 28.3863 24.2844C28.3863 10.8731 35.7481 0 35.7481 0C35.7481 0 43.11 10.8731 43.11 24.2844Z" fill="#0013D2"/>
</svg>
